<svg width="16" height="14" viewBox="0 0 16 14" fill="none" xmlns="http://www.w3.org/2000/svg">
<path d="M13.6134 2.05335C13.2789 1.71773 12.8815 1.45144 12.4439 1.26974C12.0064 1.08804 11.5372 0.994507 11.0634 0.994507C10.5896 0.994507 10.1204 1.08804 9.68284 1.26974C9.24526 1.45144 8.84784 1.71773 8.51339 2.05335L8.00006 2.57335L7.48672 2.05335C7.15227 1.71773 6.75486 1.45144 6.31727 1.26974C5.87968 1.08804 5.41053 0.994507 4.93672 0.994507C4.46291 0.994507 3.99376 1.08804 3.55618 1.26974C3.11859 1.45144 2.72118 1.71773 2.38672 2.05335C0.973391 3.46668 0.886724 5.85335 2.66672 7.66668L8.00006 13L13.3334 7.66668C15.1134 5.85335 15.0267 3.46668 13.6134 2.05335Z" stroke="#94A3B8" stroke-width="2" stroke-linecap="round" stroke-linejoin="round"/>
</svg>
