<svg width="16" height="16" viewBox="0 0 16 16" fill="none" xmlns="http://www.w3.org/2000/svg">
<g clip-path="url(#clip0_510_100)">
<path d="M2.66671 14.6667H13.3334C13.687 14.6667 14.0261 14.5262 14.2762 14.2762C14.5262 14.0261 14.6667 13.687 14.6667 13.3334V2.66671C14.6667 2.31309 14.5262 1.97395 14.2762 1.7239C14.0261 1.47385 13.687 1.33337 13.3334 1.33337H5.33337C4.97975 1.33337 4.64061 1.47385 4.39057 1.7239C4.14052 1.97395 4.00004 2.31309 4.00004 2.66671V13.3334C4.00004 13.687 3.85957 14.0261 3.60952 14.2762C3.35947 14.5262 3.02033 14.6667 2.66671 14.6667ZM2.66671 14.6667C2.31309 14.6667 1.97395 14.5262 1.7239 14.2762C1.47385 14.0261 1.33337 13.687 1.33337 13.3334V7.33337C1.33337 6.60004 1.93337 6.00004 2.66671 6.00004H4.00004" stroke="#0F172A" stroke-width="2" stroke-linecap="round" stroke-linejoin="round"/>
<path d="M12 9.33337H6.66663" stroke="#0F172A" stroke-width="2" stroke-linecap="round" stroke-linejoin="round"/>
<path d="M9.99996 12H6.66663" stroke="#0F172A" stroke-width="2" stroke-linecap="round" stroke-linejoin="round"/>
<path d="M6.66663 4H12V6.66667H6.66663V4Z" stroke="#0F172A" stroke-width="2" stroke-linecap="round" stroke-linejoin="round"/>
</g>
<defs>
<clipPath id="clip0_510_100">
<rect width="16" height="16" fill="white"/>
</clipPath>
</defs>
</svg>
